<?xml version="1.0" encoding="utf-8"?>
<svg xmlns="http://www.w3.org/2000/svg" viewBox="0 0 80 80" width="64" height="64">
  <path fill="#c29653" d="M15,48.3c-0.5,0-1-0.4-1-1c0-4.8,1.1-9.4,3.3-13.7c0.3-0.5,0.9-0.7,1.4-0.4c0.5,0.3,0.7,0.9,0.4,1.4 c-2.1,3.9-3.1,8.2-3.1,12.7C16,47.9,15.5,48.3,15,48.3C15,48.3,15,48.3,15,48.3z" />
  <path fill="#c29653" d="M11,48.4c-0.5,0-1-0.4-1-1c0-5.2,1.2-10.4,3.7-15.4c2.2-4.4,5.3-7.5,5.9-8.1c4.8-4.8,10.9-8,17.6-9.2 c0.5-0.1,1.1,0.3,1.2,0.8s-0.3,1.1-0.8,1.2c-6.3,1.1-12,4.1-16.5,8.7c-0.6,0.6-3.5,3.5-5.5,7.5c-2.3,4.7-3.5,9.6-3.5,14.5 C12,47.9,11.5,48.4,11,48.4C11,48.4,11,48.4,11,48.4z" />
  <path fill="#788b9c" d="M6 16L6 6 16 6 16 4 4 4 4 16zM74 16L76 16 76 4 64 4 64 6 74 6zM74 64L74 74 64 74 64 76 76 76 76 64zM6 64L4 64 4 76 16 76 16 74 6 74z" />
  <path fill="#c29653" d="M23 48.2c-.5 0-1-.4-1-1 0-3.2.7-6.4 2.1-9.3.2-.5.8-.7 1.3-.5.5.2.7.8.5 1.3-1.3 2.6-1.9 5.4-1.9 8.4C24 47.8 23.5 48.2 23 48.2 23 48.2 23 48.2 23 48.2zM63.1 48.2c-.5 0-.9-.3-1-.8-.1-.3-.1-.6-.1-1l-.2-1.6c-1.1-9.6-9.2-16.8-18.9-16.8-5.2 0-10 2-13.5 5.7-.4.4-1 .4-1.4 0-.4-.4-.4-1 0-1.4 3.9-4 9.2-6.2 14.9-6.3 10.7 0 19.7 8 20.9 18.6l.2 1.6c0 .3.1.6.1.7.1.5-.2 1.1-.7 1.2C63.3 48.2 63.2 48.2 63.1 48.2z" />
  <path fill="#c29653" d="M66.9,46c-0.5,0-0.9-0.4-1-0.9c-0.3-3-1.1-5.8-2.5-8.5c-3-5.7-8.2-9.9-14.3-11.6 c-0.5-0.1-0.8-0.7-0.7-1.2c0.1-0.5,0.7-0.8,1.2-0.7c6.7,1.9,12.3,6.5,15.5,12.6c1.5,2.9,2.4,6,2.7,9.3C67.9,45.5,67.5,45.9,66.9,46 C66.9,46,66.9,46,66.9,46z" />
  <path fill="#c29653" d="M70 40.9c-.4 0-.8-.3-1-.7-.5-1.9-1.2-3.7-2.1-5.4-3.5-6.6-9.6-11.6-16.8-13.6-.5-.1-.8-.7-.7-1.2.1-.5.7-.8 1.2-.7 7.7 2.2 14.3 7.5 18 14.6 1 1.9 1.7 3.8 2.3 5.8.1.5-.2 1.1-.7 1.2C70.2 40.9 70.1 40.9 70 40.9zM19 47.7C19 47.7 19 47.7 19 47.7c-.6 0-1-.5-1-1 .1-5.3 1.8-10.4 5-14.6.7-.9 1.4-1.7 2.2-2.5 4.7-4.8 11-7.4 17.8-7.4 0 0 0 0 0 0 .5 0 1 .4 1 1 0 .6-.4 1-1 1-6.2 0-12 2.5-16.4 6.9-.7.7-1.4 1.5-2 2.3-2.9 3.9-4.5 8.5-4.6 13.4C20 47.3 19.5 47.7 19 47.7z" />
  <path fill="#8bb7f0" d="M22.4 65c-.4 0-.8-.2-.9-.6-1.4-3.6-2.4-7.4-3-11.2-.1-.5.3-1.1.8-1.1.5-.1 1.1.3 1.1.8.6 3.7 1.5 7.3 2.9 10.7.2.5-.1 1.1-.6 1.3C22.7 64.9 22.5 65 22.4 65zM16.9 60.9c-.4 0-.8-.3-1-.7C14.2 54 14 49.2 14 47.3c0-.6.4-1 1-1 0 0 0 0 0 0 .5 0 1 .4 1 1 0 1.7.2 6.4 1.9 12.3.1.5-.2 1.1-.7 1.2C17 60.9 17 60.9 16.9 60.9z" />
  <path fill="#c29653" d="M23,28.5c-0.3,0-0.5-0.1-0.7-0.3c-0.4-0.4-0.4-1,0-1.4c5.4-5.5,12.8-8.6,20.6-8.6 c6.9,0,13.5,2.5,18.8,6.9c0.4,0.4,0.5,1,0.1,1.4c-0.4,0.4-1,0.5-1.4,0.1c-4.9-4.1-11.1-6.4-17.5-6.4c-7.3,0-14.1,2.9-19.2,8 C23.5,28.4,23.3,28.5,23,28.5z" />
  <path fill="#8bb7f0" d="M11.7,56.1c-0.5,0-0.9-0.3-1-0.8c-0.6-3.7-0.7-6.5-0.7-7.8c0-0.6,0.4-1,1-1c0.5,0,1,0.4,1,1 c0,1.3,0.1,4,0.7,7.5c0.1,0.5-0.3,1.1-0.8,1.2C11.8,56.1,11.7,56.1,11.7,56.1z" />
  <path fill="#c29653" d="M63.6,23.8c-0.2,0-0.5-0.1-0.6-0.2c-5.6-4.8-12.7-7.4-20.1-7.4c-0.6,0-1-0.4-1-1s0.4-1,1-1 c7.8,0,15.4,2.8,21.4,7.9c0.4,0.4,0.5,1,0.1,1.4C64.2,23.6,63.9,23.8,63.6,23.8z" />
  <path fill="#c29653" d="M11,31.6c-0.1,0-0.3,0-0.4-0.1c-0.5-0.2-0.7-0.8-0.5-1.3c2.4-4.8,5.7-8.2,6.7-9.2 c6.9-6.9,16.1-10.8,26.1-10.9c8.8,0,17.3,3.1,24,8.8c0.4,0.4,0.5,1,0.1,1.4c-0.4,0.4-1,0.5-1.4,0.1c-6.3-5.4-14.4-8.3-22.7-8.3 c-9.4,0.1-18.2,3.7-24.7,10.3c-0.9,0.9-4.1,4.1-6.3,8.6C11.7,31.4,11.3,31.6,11,31.6z" />
  <path fill="#8bb7f0" d="M57 67.4c-.1 0-.2 0-.2 0-2.7-.7-5.1-1.8-7.1-3.5-.4-.3-.5-1-.2-1.4.3-.4 1-.5 1.4-.2 1.8 1.4 3.9 2.5 6.4 3.1.5.1.9.7.7 1.2C57.9 67.1 57.4 67.4 57 67.4zM52 69.8c-.1 0-.3 0-.4-.1-4.5-2.1-7.9-5.5-10.3-10.2-.3-.5-.1-1.1.4-1.3.5-.2 1.1-.1 1.3.4 2.2 4.3 5.3 7.4 9.4 9.3.5.2.7.8.5 1.3C52.7 69.6 52.4 69.8 52 69.8z" />
  <path fill="#c29653" d="M39,48.1c-0.5,0-1-0.4-1-1c0-1.3,0.5-2.6,1.4-3.5c0.9-0.9,2.2-1.5,3.5-1.5c2.7,0,5,2.2,5,5 c0,0.6-0.4,1-1,1c0,0,0,0,0,0c-0.5,0-1-0.4-1-1c0-1.6-1.4-3-3-3c-0.8,0-1.6,0.3-2.1,0.9c-0.6,0.6-0.9,1.3-0.9,2.1 C40,47.6,39.6,48.1,39,48.1C39,48.1,39,48.1,39,48.1z" />
  <path fill="#8bb7f0" d="M67.2,53.8c-0.2,0-0.4,0-0.5-0.1c-1.4-0.8-2.9-1.3-4.6-1.5c-1.7-0.2-3.8-1.2-4.1-5.4 c0-0.6,0.4-1,0.9-1.1c0.5,0,1,0.4,1.1,0.9c0.2,3.3,1.8,3.5,2.3,3.5c1.9,0.2,3.7,0.8,5.4,1.8c0.5,0.3,0.6,0.9,0.3,1.4 C67.9,53.6,67.5,53.8,67.2,53.8z" />
  <path fill="#c29653" d="M35 48.1c-.5 0-1-.4-1-1 0-2.4.9-4.7 2.6-6.4 1.7-1.7 4-2.7 6.4-2.7l0 2h0c-1.9 0-3.7.8-5 2.1-1.3 1.3-2 3.1-2 5C36 47.7 35.6 48.1 35 48.1 35 48.1 35 48.1 35 48.1zM51 48c-.5 0-1-.4-1-1 0-1.5-.5-3-1.4-4.2-.3-.4-.3-1.1.2-1.4.4-.3 1.1-.2 1.4.2C51.3 43.2 52 45 52 47 52 47.5 51.6 48 51 48 51 48 51 48 51 48zM31 48.1c-.5 0-1-.4-1-1 0-1.2.1-2.4.4-3.5.1-.5.7-.9 1.2-.7.5.1.9.7.7 1.2-.3 1-.4 1.9-.4 2.9C32 47.7 31.6 48.1 31 48.1 31 48.1 31 48.1 31 48.1z" />
  <path fill="#c29653" d="M55,47.9c-0.5,0-1-0.4-1-1c-0.1-6-5-10.9-11-10.9c-3,0-5.8,1.2-7.8,3.3c-0.4,0.4-1,0.4-1.4,0 c-0.4-0.4-0.4-1,0-1.4c2.4-2.5,5.7-3.8,9.2-3.9c7.1,0,12.9,5.8,13,12.9C56,47.5,55.6,47.9,55,47.9C55,47.9,55,47.9,55,47.9z" />
  <path fill="#8bb7f0" d="M63 56.1c-5.8 0-8.9-3.1-9-9.1 0-.6.4-1 1-1 0 0 0 0 0 0 .5 0 1 .4 1 1 0 4.9 2.3 7.1 7 7.1.6 0 1 .4 1 1S63.6 56.1 63 56.1zM33.5 69.1c-.3 0-.6-.2-.8-.5-1.4-2.1-2.6-4.5-3.6-7-.2-.5 0-1.1.6-1.3.5-.2 1.1 0 1.3.6.9 2.4 2.1 4.6 3.4 6.6.3.5.2 1.1-.3 1.4C33.9 69 33.7 69.1 33.5 69.1z" />
  <path fill="#c29653" d="M27 48.2c-.5 0-1-.4-1-1 0-4.5 1.7-8.8 4.9-12.1 2.2-2.2 4.9-3.8 7.9-4.5.5-.1 1.1.2 1.2.7s-.2 1.1-.7 1.2c-2.6.7-5 2.1-6.9 4-2.8 2.9-4.3 6.6-4.3 10.6C28 47.7 27.6 48.2 27 48.2 27 48.2 27 48.2 27 48.2zM50.9 34.2c-.2 0-.3 0-.5-.1-2.3-1.3-4.8-2-7.4-2-.6 0-1-.4-1-1s.4-1 1-1c2.9 0 5.8.8 8.4 2.2.5.3.6.9.4 1.4C51.6 34 51.2 34.2 50.9 34.2zM59 47.9c-.5 0-1-.4-1-1 0-2.6-.7-5.1-2-7.3-.3-.5-.1-1.1.4-1.4.5-.3 1.1-.1 1.4.4 1.4 2.5 2.2 5.4 2.3 8.3C60 47.4 59.6 47.9 59 47.9 59 47.9 59 47.9 59 47.9zM71.4 33.4c-.4 0-.7-.2-.9-.5-4-7.6-11-13.3-19.2-15.6-.5-.1-.8-.7-.7-1.2.1-.5.7-.8 1.2-.7C60.5 17.8 68 23.8 72.2 32c.3.5.1 1.1-.4 1.3C71.7 33.4 71.5 33.4 71.4 33.4z" />
  <path fill="#8bb7f0" d="M28 67.5c-.4 0-.7-.2-.9-.5C23.4 59.7 22 52 22 47.2c0-.6.4-1 1-1 .5 0 1 .4 1 1 0 4.5 1.3 11.9 4.9 18.8.3.5.1 1.1-.4 1.3C28.3 67.5 28.1 67.5 28 67.5zM28.6 58.2c-.4 0-.8-.3-1-.7C26.3 52.7 26 49 26 47.2c0-.6.4-1 1-1 0 0 0 0 0 0 .5 0 1 .4 1 1 0 2.9.6 6.4 1.6 9.8.2.5-.2 1.1-.7 1.2C28.8 58.2 28.7 58.2 28.6 58.2zM46 70.8c-.2 0-.4-.1-.6-.2-5.5-4.2-8.3-9.9-9.6-13.9C34.7 53.5 34 50 34 47.1c0-.6.4-1 1-1 0 0 0 0 0 0 .5 0 1 .4 1 1 0 1.3.2 4.7 1.7 9 1.3 3.8 3.9 9.1 9 13 .4.3.5 1 .2 1.4C46.6 70.7 46.3 70.8 46 70.8z" />
  <path fill="#8bb7f0" d="M40 70.8c-.3 0-.5-.1-.7-.3-6.7-7.3-9.2-17.1-9.3-23.4 0-.6.4-1 1-1 0 0 0 0 0 0 .5 0 1 .4 1 1 0 4.7 1.9 14.7 8.7 22 .4.4.4 1-.1 1.4C40.5 70.7 40.2 70.8 40 70.8zM47.6 61.4c-.3 0-.6-.1-.8-.4C42 55 42 47.5 42 47.1c0-.6.4-1 1-1 .6 0 1 .4 1 1 0 0 0 0 0 .1 0 .8.3 7.4 4.4 12.6.3.4.3 1.1-.2 1.4C48 61.3 47.8 61.4 47.6 61.4zM40.5 56.1c-.4 0-.8-.3-1-.7-1.5-4.6-1.5-8.3-1.5-8.3 0-.6.4-1 1-1 0 0 0 0 0 0 .5 0 1 .4 1 1 0 .1.1 3.5 1.4 7.7.2.5-.1 1.1-.6 1.3C40.7 56.1 40.6 56.1 40.5 56.1z" />
  <path fill="#8bb7f0" d="M61,64.1c0,0-0.1,0-0.1,0C48.8,62.9,46,51.4,46,47c0-0.6,0.4-1,1-1c0,0,0,0,0,0c0.5,0,1,0.4,1,1 c0,0.1,0.3,13.8,13.1,15.1c0.5,0.1,1,0.5,0.9,1.1C62,63.7,61.5,64.1,61,64.1z" />
  <path fill="#8bb7f0" d="M63 60.1c-9.5 0-12.9-6.8-13-13.1 0-.6.4-1 1-1 0 0 0 0 0 0 .5 0 1 .4 1 1 0 3.3 1.2 11.1 11 11.1.6 0 1 .4 1 1S63.6 60.1 63 60.1zM69.4 50.4c-.2 0-.4 0-.5-.1-1.8-1.1-3.8-1.8-5.9-2.1-.5-.1-.9-.6-.9-1.1.1-.5.6-.9 1.1-.9 2.4.3 4.6 1.1 6.7 2.3.5.3.6.9.3 1.4C70 50.3 69.7 50.4 69.4 50.4z" />
  <path fill="#c2e8ff" d="M4 46H76V48H4z" />
</svg>